<?xml version="1.0" encoding="UTF-8" standalone="no"?>
<svg
   xmlns:dc="http://purl.org/dc/elements/1.1/"
   xmlns:cc="http://creativecommons.org/ns#"
   xmlns:rdf="http://www.w3.org/1999/02/22-rdf-syntax-ns#"
   xmlns:svg="http://www.w3.org/2000/svg"
   xmlns="http://www.w3.org/2000/svg"
   viewBox="0 0 207.28 192"
   height="192"
   width="207.28"
   xml:space="preserve"
   version="1.1"
   id="svg2"><metadata
     id="metadata8"><rdf:RDF><cc:Work
         rdf:about=""><dc:format>image/svg+xml</dc:format><dc:type
           rdf:resource="http://purl.org/dc/dcmitype/StillImage" /></cc:Work></rdf:RDF></metadata><defs
     id="defs6"><clipPath
       id="clipPath18"
       clipPathUnits="userSpaceOnUse"><path
         id="path20"
         d="M 0,1440 0,0 l 1554.63,0 0,1440 L 0,1440 Z" /></clipPath></defs><g
     transform="matrix(1.3333333,0,0,-1.3333333,0,192)"
     id="g10"><g
       transform="scale(0.1)"
       id="g12"><g
         id="g14"><g
           clip-path="url(#clipPath18)"
           id="g16"><path
             id="path22"
             style="fill:#231f20;fill-opacity:1;fill-rule:nonzero;stroke:none"
             d="m 1227.08,212.93 -213.44,0 0,334.199 c 0,79.687 -1.46,182.203 -110.995,182.203 -111.122,0 -128.18,-86.812 -128.18,-176.441 l 0,-339.961 -213.403,0 0,687.215 204.844,0 0,-93.899 2.864,0 c 28.515,54.027 98.195,110.984 202.097,110.984 216.283,0 256.213,-142.343 256.213,-327.359 l 0,-376.941 z M 320.344,994.086 c -68.457,0 -123.86,55.494 -123.86,123.864 0,68.3 55.403,123.8 123.86,123.8 68.289,0 123.777,-55.5 123.777,-123.8 0,-68.37 -55.488,-123.864 -123.777,-123.864 z m 106.758,-781.156 -213.606,0 0,687.215 213.606,0 0,-687.215 z M 1333.45,1440 106.289,1440 C 47.6484,1440 0,1393.52 0,1336.23 L 0,103.898 C 0,46.5508 47.6484,0 106.289,0 L 1333.45,0 c 58.74,0 106.59,46.5508 106.59,103.898 l 0,1232.332 c 0,57.29 -47.85,103.77 -106.59,103.77" /><path
             id="path24"
             style="fill:#231f20;fill-opacity:1;fill-rule:nonzero;stroke:none"
             d="m 1475.12,249.102 11.61,0 0,-36.172 6.31,0 0,36.172 11.58,0 0,6.308 -29.5,0 0,-6.308" /><path
             id="path26"
             style="fill:#231f20;fill-opacity:1;fill-rule:nonzero;stroke:none"
             d="m 1545.64,255.41 -12.39,-31.18 -12.38,31.18 -8.99,0 0,-42.48 6.28,0 0,32.32 13,-32.32 4.19,0 13,32.32 0,-32.32 6.28,0 0,42.48 -8.99,0" /></g></g></g></g></svg>